<?xml version="1.0" encoding="utf-8"?>
<!-- Generator: Adobe Illustrator 19.1.0, SVG Export Plug-In . SVG Version: 6.00 Build 0)  -->
<svg version="1.1" id="Layer_1" xmlns="http://www.w3.org/2000/svg" xmlns:xlink="http://www.w3.org/1999/xlink" x="0px" y="0px"
	 viewBox="0 0 118 164.1" style="enable-background:new 0 0 118 164.1;" xml:space="preserve">
<style type="text/css">
	.st0{fill:#1D1D1B;stroke:#1D1D1B;stroke-miterlimit:10;}
	.st1{fill:none;stroke:#000000;stroke-width:15;stroke-miterlimit:10;}
	.st2{fill:none;}
</style>
<g>
	<path class="st0" d="M58.3,102.5c-25.6,0-46.4-20.8-46.4-46.4S32.7,9.6,58.3,9.6s46.4,20.8,46.4,46.4S83.9,102.5,58.3,102.5z
		 M58.3,13.8c-23.3,0-42.2,18.9-42.2,42.2c0,23.3,18.9,42.2,42.2,42.2s42.2-18.9,42.2-42.2C100.5,32.8,81.6,13.8,58.3,13.8z"/>
</g>
<g>
	<path class="st0" d="M58.3,91.2c-19.4,0-35.2-15.8-35.2-35.2c0-19.4,15.8-35.2,35.2-35.2s35.2,15.8,35.2,35.2
		C93.5,75.4,77.7,91.2,58.3,91.2z M58.3,25.1c-17.1,0-31,13.9-31,31s13.9,31,31,31s31-13.9,31-31S75.4,25.1,58.3,25.1z"/>
</g>
<g>
	<path class="st0" d="M58.3,79.6c-13,0-23.5-10.6-23.5-23.5c0-13,10.6-23.5,23.5-23.5s23.5,10.6,23.5,23.5
		C81.8,69,71.3,79.6,58.3,79.6z M58.3,36.7C47.7,36.7,39,45.4,39,56.1s8.7,19.3,19.3,19.3s19.3-8.7,19.3-19.3S69,36.7,58.3,36.7z"/>
</g>
<g>
	<g>
		<path d="M-3673.4-85.6c0,73.2,0,146.4,0,219.7c-0.1,1.5,0.1,2.9-0.2,4.4c-0.5,3.2-2.7,6.1-5.6,7.5c-1.5,0.7-3.2,1.1-4.8,1.1
			c-32.4,0-64.9,0-97.3,0c-1.8,0-3.7,0.1-5.5-0.3c-2.6-0.6-4.9-2.3-6.3-4.6c-1.1-1.7-1.6-3.7-1.6-5.8c0-72.9,0-145.8,0-218.7
			c0-1.6-0.1-3.1,0.2-4.7c0.5-2.2,1.6-4.4,3.4-5.9c1.9-1.7,4.5-2.7,7-2.6c33.6,0,67.1,0,100.7,0c2.4,0.1,4.7,1,6.5,2.6
			C-3674.8-91-3673.5-88.4-3673.4-85.6z M-3680.9-72.7c-0.2,0-0.4,0-0.6,0c-27.2,0-54.3,0-81.5,0c-8,0-16.1,0-24.1,0
			c0,63.2,0,126.3,0,189.5c16.7,0,33.5,0,50.2,0c18.6,0,37.3,0,55.9,0c0-38.1,0-76.2,0-114.3C-3680.9-22.6-3681-47.6-3680.9-72.7z
			 M-3711.3-85c-0.3-1.2-1.2-2.2-2.3-2.7c-0.7-0.3-1.4-0.3-2.1-0.3c-7.3,0-14.6,0-21.9,0c-1.7-0.1-3.4,1.2-3.8,2.9
			c-0.2,0.9-0.1,2,0.4,2.8c0.6,1.2,1.9,2,3.3,2c7.6,0,15.2,0,22.8,0c1.5,0,3-0.9,3.5-2.3C-3711.2-83.3-3711.2-84.1-3711.3-85z
			 M-3726.5,130.4c-0.4-1.8-1.4-3.5-2.9-4.6c-2.7-2.1-6.9-2-9.5,0.3c-2.4,1.9-3.3,5.4-2.3,8.3c0.9,2.8,3.6,5,6.5,5.1
			c3.3,0.4,6.6-1.7,7.7-4.8C-3726.4,133.4-3726.3,131.8-3726.5,130.4z M-3749.3-85.1c-0.5-1.7-2.3-3-4.1-2.7c-1.6,0.1-3,1.4-3.3,3
			c-0.1,0.8-0.1,1.7,0.3,2.5c0.5,1.1,1.6,1.9,2.8,2.1c1.4,0.3,2.9-0.4,3.7-1.5C-3749.1-82.8-3749-84-3749.3-85.1z"/>
	</g>
</g>
<path d="M-3498.3,147.1h-0.2c-2,0-3.6-1.6-3.6-3.6c0-2,1.6-3.6,3.6-3.6h0.2c2,0,3.6,1.6,3.6,3.6
	C-3494.6,145.4-3496.3,147.1-3498.3,147.1z M-3458.8,147.1h-0.2c-2,0-3.6-1.6-3.6-3.6c0-2,1.6-3.6,3.6-3.6h0.2c2,0,3.6,1.6,3.6,3.6
	C-3455.2,145.4-3456.8,147.1-3458.8,147.1z M-3478.6,147.1h-0.2c-2,0-3.6-1.6-3.6-3.6c0-2,1.6-3.6,3.6-3.6h0.2c2,0,3.6,1.6,3.6,3.6
	C-3474.9,145.4-3476.5,147.1-3478.6,147.1z M-3518,147.1h-0.2c-2,0-3.6-1.6-3.6-3.6c0-2,1.6-3.6,3.6-3.6h0.2c2,0,3.6,1.6,3.6,3.6
	C-3514.3,145.4-3516,147.1-3518,147.1z M-3537.7,147.1h-0.2c-2,0-3.6-1.6-3.6-3.6c0-2,1.6-3.6,3.6-3.6h0.2c2,0,3.6,1.6,3.6,3.6
	C-3534.1,145.4-3535.7,147.1-3537.7,147.1z M-3557.4,147.1h-0.2c-2,0-3.6-1.6-3.6-3.6c0-2,1.6-3.6,3.6-3.6h0.2c2,0,3.6,1.6,3.6,3.6
	C-3553.8,145.4-3555.4,147.1-3557.4,147.1z M-3439.1,147.1h-0.2c-2,0-3.6-1.6-3.6-3.6c0-2,1.6-3.6,3.6-3.6h0.2c2,0,3.6,1.6,3.6,3.6
	C-3435.5,145.4-3437.1,147.1-3439.1,147.1z M-3577.1,147.1h-0.2c-2,0-3.6-1.6-3.6-3.6c0-2,1.6-3.6,3.6-3.6h0.2c2,0,3.6,1.6,3.6,3.6
	C-3573.5,145.4-3575.1,147.1-3577.1,147.1z M-3596.8,147.1h-0.2c-2,0-3.6-1.6-3.6-3.6c0-2,1.6-3.6,3.6-3.6h0.2c2,0,3.6,1.6,3.6,3.6
	C-3593.2,145.4-3594.8,147.1-3596.8,147.1z M-3616.5,147.1h-0.2c-2,0-3.6-1.6-3.6-3.6c0-2,1.6-3.6,3.6-3.6h0.2c2,0,3.6,1.6,3.6,3.6
	C-3612.9,145.4-3614.5,147.1-3616.5,147.1z M-3419.4,147.1h-0.2c-2,0-3.6-1.6-3.6-3.6c0-2,1.6-3.6,3.6-3.6h0.2c2,0,3.6,1.6,3.6,3.6
	C-3415.8,145.4-3417.4,147.1-3419.4,147.1z M-3399.7,147h-0.3c-2,0-3.6-1.6-3.6-3.6c0-2,1.6-3.6,3.6-3.6h0.3c2-0.2,3.7,1.4,3.8,3.4
	c0.1,2-1.4,3.7-3.4,3.9C-3399.4,147-3399.6,147-3399.7,147z M-3632.2,138.6c-1.7,0-3.2-1.1-3.5-2.8l-0.1-0.3c-0.4-2,1-3.9,2.9-4.2
	c2-0.4,3.9,0.9,4.2,2.9c0.4,2-0.8,4-2.8,4.4C-3631.7,138.6-3632,138.6-3632.2,138.6z M-3389.9,132.9c-2,0-3.6-1.6-3.6-3.6V129
	c0-2,1.6-3.6,3.6-3.6c2,0,3.6,1.6,3.6,3.6v0.2C-3386.3,131.2-3387.9,132.9-3389.9,132.9z M-3632.4,119c-2,0-3.6-1.6-3.6-3.6v-0.2
	c0-2,1.6-3.6,3.6-3.6c2,0,3.6,1.6,3.6,3.6v0.2C-3628.8,117.4-3630.4,119-3632.4,119z M-3389.9,113.1c-2,0-3.6-1.6-3.6-3.6v-0.2
	c0-2,1.6-3.6,3.6-3.6c2,0,3.6,1.6,3.6,3.6v0.2C-3386.3,111.5-3387.9,113.1-3389.9,113.1z M-3632.4,99.3c-2,0-3.6-1.6-3.6-3.6v-0.2
	c0-2,1.6-3.6,3.6-3.6c2,0,3.6,1.6,3.6,3.6v0.2C-3628.8,97.7-3630.4,99.3-3632.4,99.3z M-3389.9,93.4c-2,0-3.6-1.6-3.6-3.6v-0.2
	c0-2,1.6-3.6,3.6-3.6c2,0,3.6,1.6,3.6,3.6v0.2C-3386.3,91.8-3387.9,93.4-3389.9,93.4z M-3632.4,79.6c-2,0-3.6-1.6-3.6-3.6v-0.2
	c0-2,1.6-3.6,3.6-3.6c2,0,3.6,1.6,3.6,3.6V76C-3628.8,78-3630.4,79.6-3632.4,79.6z M-3389.9,73.7c-2,0-3.6-1.6-3.6-3.6v-0.2
	c0-2,1.6-3.6,3.6-3.6c2,0,3.6,1.6,3.6,3.6v0.2C-3386.3,72.1-3387.9,73.7-3389.9,73.7z M-3632.4,59.9c-2,0-3.6-1.6-3.6-3.6V56
	c0-2,1.6-3.6,3.6-3.6c2,0,3.6,1.6,3.6,3.6v0.2C-3628.8,58.3-3630.4,59.9-3632.4,59.9z M-3389.9,54c-2,0-3.6-1.6-3.6-3.6v-0.2
	c0-2,1.6-3.6,3.6-3.6c2,0,3.6,1.6,3.6,3.6v0.2C-3386.3,52.4-3387.9,54-3389.9,54z M-3632.4,40.2c-2,0-3.6-1.6-3.6-3.6v-0.2
	c0-2,1.6-3.6,3.6-3.6c2,0,3.6,1.6,3.6,3.6v0.2C-3628.8,38.5-3630.4,40.2-3632.4,40.2z M-3390.1,34.3c-1.7,0-3.2-1.1-3.5-2.8l0-0.2
	c-0.4-2,0.9-3.9,2.8-4.3c1.9-0.4,3.9,0.8,4.3,2.8c0,0,0,0.2,0,0.2c0.4,2-0.9,3.9-2.8,4.3C-3389.6,34.2-3389.9,34.3-3390.1,34.3z
	 M-3622.5,25.8c-1.9,0-3.6-1.5-3.7-3.4c-0.1-2,1.3-3.7,3.3-3.9l0.4,0c2.1-0.1,3.7,1.5,3.8,3.5c0.1,2-1.5,3.7-3.5,3.8
	C-3622.3,25.8-3622.4,25.8-3622.5,25.8z M-3504.1,25.8h-0.2c-2,0-3.6-1.6-3.6-3.6c0-2,1.6-3.6,3.6-3.6h0.2c2,0,3.6,1.6,3.6,3.6
	C-3500.5,24.1-3502.1,25.8-3504.1,25.8z M-3523.8,25.8h-0.3c-2,0-3.6-1.6-3.6-3.6c0-2,1.6-3.6,3.6-3.6h0.3c2,0,3.6,1.6,3.6,3.6
	C-3520.2,24.1-3521.8,25.8-3523.8,25.8z M-3543.5,25.8h-0.2c-2,0-3.6-1.6-3.6-3.6c0-2,1.6-3.6,3.6-3.6h0.2c2,0,3.6,1.6,3.6,3.6
	C-3539.9,24.1-3541.5,25.8-3543.5,25.8z M-3563.2,25.8h-0.2c-2,0-3.6-1.6-3.6-3.6c0-2,1.6-3.6,3.6-3.6h0.2c2,0,3.6,1.6,3.6,3.6
	C-3559.6,24.1-3561.2,25.8-3563.2,25.8z M-3582.9,25.8h-0.2c-2,0-3.6-1.6-3.6-3.6c0-2,1.6-3.6,3.6-3.6h0.2c2,0,3.6,1.6,3.6,3.6
	C-3579.3,24.1-3580.9,25.8-3582.9,25.8z M-3602.7,25.8h-0.2c-2,0-3.6-1.6-3.6-3.6c0-2,1.6-3.6,3.6-3.6h0.2c2,0,3.6,1.6,3.6,3.6
	C-3599,24.1-3600.6,25.8-3602.7,25.8z M-3405.5,25.8h-0.3c-2,0-3.6-1.6-3.6-3.6c0-2,1.6-3.6,3.6-3.6h0.3c2,0,3.6,1.6,3.6,3.6
	C-3401.9,24.1-3403.5,25.8-3405.5,25.8z M-3425.3,25.8h-0.2c-2,0-3.6-1.6-3.6-3.6c0-2,1.6-3.6,3.6-3.6h0.2c2,0,3.6,1.6,3.6,3.6
	C-3421.6,24.1-3423.2,25.8-3425.3,25.8z M-3445,25.8h-0.2c-2,0-3.6-1.6-3.6-3.6c0-2,1.6-3.6,3.6-3.6h0.2c2,0,3.6,1.6,3.6,3.6
	C-3441.3,24.1-3443,25.8-3445,25.8z M-3464.7,25.8h-0.2c-2,0-3.6-1.6-3.6-3.6c0-2,1.6-3.6,3.6-3.6h0.2c2,0,3.6,1.6,3.6,3.6
	C-3461,24.1-3462.7,25.8-3464.7,25.8z M-3484.4,25.8h-0.2c-2,0-3.6-1.6-3.6-3.6c0-2,1.6-3.6,3.6-3.6h0.2c2,0,3.6,1.6,3.6,3.6
	C-3480.8,24.1-3482.4,25.8-3484.4,25.8z"/>
<g>
	<path d="M-3650.1-88.2c5.9,0,11.7,0.8,17.3,2.3c11.2,3,21.6,9.1,29.8,17.5c6.4,6.5,11.5,14.4,14.7,23c1.9,5.1,3.2,10.4,3.8,15.8
		c0.3,2.3,0.4,6.8,0.4,6.8l8.9,0l-16.8,16.9c0,0-0.1,0-0.1,0c-5.4-5.4-16.8-16.8-16.8-16.8l8.7,0c0,0,0-1,0-1.5
		c-0.2-5.3-1.2-10.5-3.1-15.4c-3.3-9-9.3-16.9-17-22.6c-7.1-5.3-15.6-8.6-24.5-9.6c-1.8-0.2-3.5-0.3-5.3-0.3c0-0.2,0-0.4,0-0.7
		C-3650.1-77.9-3650.2-83-3650.1-88.2z"/>
</g>
<g>
	<g>
		<path d="M-2850.6,94.4c-73.2,0-146.4,0-219.7,0c-1.5-0.1-2.9,0.1-4.4-0.2c-3.2-0.5-6.1-2.7-7.5-5.6c-0.7-1.5-1.1-3.2-1.1-4.8
			c0-32.4,0-64.9,0-97.3c0-1.8-0.1-3.7,0.3-5.5c0.6-2.6,2.3-4.9,4.6-6.3c1.7-1.1,3.7-1.6,5.8-1.6c72.9,0,145.8,0,218.7,0
			c1.6,0,3.1-0.1,4.7,0.2c2.2,0.5,4.4,1.6,5.9,3.4c1.7,1.9,2.7,4.5,2.6,7c0,33.6,0,67.1,0,100.7c-0.1,2.4-1,4.7-2.6,6.5
			C-2845.1,92.9-2847.8,94.2-2850.6,94.4z M-2863.5,86.8c0-0.2,0-0.4,0-0.6c0-27.2,0-54.3,0-81.5c0-8,0-16.1,0-24.1
			c-63.2,0-126.3,0-189.5,0c0,16.7,0,33.5,0,50.2c0,18.6,0,37.3,0,55.9c38.1,0,76.2,0,114.3,0C-2913.6,86.8-2888.6,86.8-2863.5,86.8
			z M-2851.2,56.4c1.2-0.3,2.2-1.2,2.7-2.3c0.3-0.7,0.3-1.4,0.3-2.1c0-7.3,0-14.6,0-21.9c0.1-1.7-1.2-3.4-2.9-3.8
			c-0.9-0.2-2-0.1-2.8,0.4c-1.2,0.6-2,1.9-2,3.3c0,7.6,0,15.2,0,22.8c0,1.5,0.9,3,2.3,3.5C-2852.9,56.5-2852,56.5-2851.2,56.4z
			 M-3066.6,41.2c1.8-0.4,3.5-1.4,4.6-2.9c2.1-2.7,2-6.9-0.3-9.5c-1.9-2.4-5.4-3.3-8.3-2.3c-2.8,0.9-5,3.6-5.1,6.5
			c-0.4,3.3,1.7,6.6,4.8,7.7C-3069.5,41.4-3068,41.4-3066.6,41.2z M-2851,18.5c1.7-0.5,3-2.3,2.7-4.1c-0.1-1.6-1.4-3-3-3.3
			c-0.8-0.1-1.7-0.1-2.5,0.3c-1.1,0.5-1.9,1.6-2.1,2.8c-0.3,1.4,0.4,2.9,1.5,3.7C-2853.4,18.6-2852.2,18.8-2851,18.5z"/>
	</g>
</g>
<g>
	<g>
		<path d="M-362.5,46.9c0,27.5,0,54.9,0,82.4c0,0.5,0.1,1.1-0.1,1.6c-0.2,1.2-1.1,2.3-2.2,2.8c-0.6,0.3-1.3,0.4-1.9,0.4
			c-12.9,0-25.9,0-38.8,0c-0.7,0-1.5,0.1-2.2-0.1c-1-0.2-2-0.9-2.5-1.7c-0.4-0.6-0.6-1.4-0.6-2.2c0-27.3,0-54.7,0-82
			c0-0.6,0-1.2,0.1-1.8c0.2-0.8,0.7-1.6,1.4-2.2c0.8-0.6,1.8-1,2.8-1c13.4,0,26.7,0,40.1,0c0.9,0,1.9,0.4,2.6,1
			C-363,44.8-362.5,45.8-362.5,46.9z M-368,51.7c-0.1,0-0.1,0-0.2,0c-9.6,0-19.2,0-28.8,0c-2.8,0-5.7,0-8.5,0c0,23.7,0,47.4,0,71.1
			c5.9,0,11.8,0,17.7,0c6.6,0,13.2,0,19.8,0c0-14.3,0-28.6,0-42.9C-368,70.5-368,61.1-368,51.7z M-378.1,47.1
			c-0.1-0.4-0.4-0.8-0.9-1c-0.3-0.1-0.5-0.1-0.8-0.1c-2.7,0-5.5,0-8.2,0c-0.7,0-1.3,0.4-1.4,1.1c-0.1,0.3-0.1,0.7,0.1,1
			c0.2,0.4,0.7,0.7,1.2,0.7c2.8,0,5.7,0,8.5,0c0.6,0,1.1-0.3,1.3-0.9C-378.1,47.7-378.1,47.4-378.1,47.1z M-383.8,127.9
			c-0.2-0.7-0.5-1.3-1.1-1.7c-1-0.8-2.6-0.7-3.6,0.1c-0.9,0.7-1.2,2-0.9,3.1c0.3,1.1,1.3,1.9,2.5,1.9c1.2,0.1,2.5-0.6,2.9-1.8
			C-383.7,129-383.7,128.4-383.8,127.9z M-392.3,47c-0.2-0.7-0.9-1.1-1.5-1c-0.6,0-1.1,0.5-1.3,1.1c0,0.3,0,0.7,0.1,0.9
			c0.2,0.4,0.6,0.7,1.1,0.8c0.5,0.1,1.1-0.1,1.4-0.6C-392.3,47.9-392.2,47.5-392.3,47z"/>
	</g>
</g>
<g>
	<path d="M-2912.4,160c-4.1,4.1-8.8,7.7-13.9,10.6c-10.1,5.8-21.7,8.8-33.4,8.7c-9.2-0.1-18.3-2.1-26.7-5.9c-5-2.2-9.6-5.1-13.9-8.5
		c-1.8-1.4-5.1-4.5-5.1-4.5l-6.3,6.3l0-23.8c0,0,0.1,0,0.1-0.1c7.7,0,23.8,0,23.8,0l-6.2,6.2c0,0,0.7,0.7,1,1
		c3.9,3.6,8.3,6.5,13.1,8.7c8.7,4,18.6,5.4,28.1,4c8.8-1.3,17.2-4.9,24-10.5c1.4-1.1,2.7-2.3,3.9-3.5c0.2,0.1,0.3,0.3,0.5,0.4
		C-2919.6,152.7-2916,156.4-2912.4,160z"/>
</g>
<g>
	<path d="M-3011.6-81c4.1-4.1,8.8-7.7,13.9-10.6c10.1-5.8,21.7-8.8,33.4-8.7c9.2,0.1,18.3,2.1,26.7,5.9c5,2.2,9.6,5.1,13.9,8.5
		c1.8,1.4,5.1,4.5,5.1,4.5l6.3-6.3l0,23.8c0,0-0.1,0-0.1,0.1c-7.7,0-23.8,0-23.8,0l6.2-6.2c0,0-0.7-0.7-1-1
		c-3.9-3.6-8.3-6.5-13.1-8.7c-8.7-4-18.6-5.4-28.1-4c-8.8,1.3-17.2,4.9-24,10.5c-1.4,1.1-2.7,2.3-3.9,3.5c-0.2-0.1-0.3-0.3-0.5-0.4
		C-3004.4-73.8-3008-77.4-3011.6-81z"/>
</g>
<g>
	<g>
		<path d="M-2493.4,32.7c-34,0-61.7,27.7-61.7,61.7c0,34,27.7,61.7,61.7,61.7s61.7-27.7,61.7-61.7
			C-2431.8,60.4-2459.4,32.7-2493.4,32.7L-2493.4,32.7z M-2493.4,144.9c-27.8,0-50.5-22.6-50.5-50.5c0-27.8,22.6-50.4,50.5-50.4
			c27.8,0,50.5,22.6,50.5,50.4C-2443,122.2-2465.6,144.9-2493.4,144.9L-2493.4,144.9z"/>
		<path d="M-2492,119.7c1.9,1.9,5,1.9,6.9,0c1.9-1.9,1.9-4.9,0-6.8l-18.8-18.5l18.8-18.5c1.9-1.9,1.9-4.9,0-6.8
			c-0.9-0.9-2.2-1.4-3.4-1.4c-1.2,0-2.5,0.5-3.4,1.4l-22.1,21.9c-1.9,1.9-1.9,4.9,0,6.8L-2492,119.7z"/>
	</g>
</g>
<g>
	<g>
		<path d="M-2204.4,156.1c34,0,61.7-27.7,61.7-61.7c0-34-27.7-61.7-61.7-61.7s-61.7,27.7-61.7,61.7
			C-2266.1,128.4-2238.4,156.1-2204.4,156.1L-2204.4,156.1z M-2204.4,44c27.8,0,50.5,22.6,50.5,50.5c0,27.8-22.6,50.4-50.5,50.4
			s-50.5-22.6-50.5-50.4C-2254.8,66.6-2232.2,44-2204.4,44L-2204.4,44z"/>
		<path d="M-2205.8,69.1c-1.9-1.9-5-1.9-6.9,0c-1.9,1.9-1.9,4.9,0,6.8l18.8,18.5l-18.8,18.5c-1.9,1.9-1.9,4.9,0,6.8
			c0.9,0.9,2.2,1.4,3.4,1.4c1.2,0,2.5-0.5,3.4-1.4l22.1-21.9c1.9-1.9,1.9-4.9,0-6.8L-2205.8,69.1z"/>
	</g>
</g>
<g>
	<g>
		<path d="M-2410.6,94.4c0,34,27.7,61.7,61.7,61.7c34,0,61.7-27.7,61.7-61.7c0-34-27.7-61.7-61.7-61.7
			C-2382.9,32.7-2410.6,60.4-2410.6,94.4L-2410.6,94.4z M-2298.5,94.4c0,27.8-22.6,50.5-50.5,50.5c-27.8,0-50.4-22.6-50.4-50.5
			s22.6-50.5,50.4-50.5C-2321.1,44-2298.5,66.6-2298.5,94.4L-2298.5,94.4z"/>
		<path d="M-2323.6,93c1.9-1.9,1.9-5,0-6.9c-1.9-1.9-4.9-1.9-6.8,0l-18.5,18.8l-18.5-18.8c-1.9-1.9-4.9-1.9-6.8,0
			c-0.9,0.9-1.4,2.2-1.4,3.4c0,1.2,0.5,2.5,1.4,3.4l21.9,22.1c1.9,1.9,4.9,1.9,6.8,0L-2323.6,93z"/>
	</g>
</g>
<g>
	<g>
		<path d="M-2287.2-48.4c0-34-27.7-61.7-61.7-61.7c-34,0-61.7,27.7-61.7,61.7c0,34,27.7,61.7,61.7,61.7
			C-2314.9,13.3-2287.2-14.4-2287.2-48.4L-2287.2-48.4z M-2399.4-48.4c0-27.8,22.6-50.5,50.5-50.5c27.8,0,50.4,22.6,50.4,50.5
			c0,27.8-22.6,50.5-50.4,50.5C-2376.7,2-2399.4-20.6-2399.4-48.4L-2399.4-48.4z"/>
		<path d="M-2374.2-47c-1.9,1.9-1.9,5,0,6.9c1.9,1.9,4.9,1.9,6.8,0l18.5-18.8l18.5,18.8c1.9,1.9,4.9,1.9,6.8,0
			c0.9-0.9,1.4-2.2,1.4-3.4c0-1.2-0.5-2.5-1.4-3.4l-21.9-22.1c-1.9-1.9-4.9-1.9-6.8,0L-2374.2-47z"/>
	</g>
</g>
<g>
	<g>
		<path class="st1" d="M-1707.3,105c43.8,0,79.4-35.5,79.4-79.4c0-21.2-8.3-40.5-21.9-54.8"/>
		<path class="st1" d="M-1707.3,65.3"/>
		<polyline class="st1" points="-1674.3,127 -1707.3,105 -1686.9,74.5 		"/>
	</g>
	<g>
		<path class="st1" d="M-1713.3-52.2c-43.8,0-79.4,35.5-79.4,79.4c0,21.2,8.3,40.5,21.9,54.8"/>
		<path class="st1" d="M-1713.3-12.5"/>
		<polyline class="st1" points="-1746.4,-74.2 -1713.3,-52.2 -1733.7,-21.7 		"/>
	</g>
</g>
<path d="M-1106.6,95.3h-128.8c0,0-18.4,0-18.4-19.3V-58.9c0-19.3,18.4-19.3,18.4-19.3h165.6c0,0,18.4,0,18.4,19.3v72.7h-9.2v-72.3
	c0-10-9.2-10-9.2-10h-165.6c0,0-9.2,0-9.2,10V75.6c0,10,9.2,10,9.2,10h128.8V95.3z"/>
<polygon points="-1106.6,56.7 -1244.6,56.7 -1244.6,47.1 -1106.6,47.1 -1106.6,56.7 "/>
<polygon points="-1171,114.5 -1171,95.3 -1134.2,95.3 -1134.2,114.5 -1115.8,114.5 -1115.8,124.2 -1189.4,124.2 -1189.4,114.5 
	-1171,114.5 "/>
<ellipse cx="-1152.6" cy="71.2" rx="4.6" ry="4.8"/>
<path d="M-959.4,23h-128.8c-5.1,0-9.2,4.1-9.2,9.2V115c0,5.1,4.1,9.2,9.2,9.2h128.8c5.1,0,9.2-4.1,9.2-9.2V32.2
	C-950.2,27.1-954.3,23-959.4,23z M-968.6,115h-115V32.2h115V115z M-959.4,78.2c-2.5,0-4.6-2.1-4.6-4.6s2.1-4.6,4.6-4.6
	c2.5,0,4.6,2.1,4.6,4.6S-956.9,78.2-959.4,78.2z"/>
<g>
	<path id="a_1_" class="st2" d="M-1106.6,95.3h-128.8c0,0-18.4,0-18.4-19.3V-58.9c0-19.3,18.4-19.3,18.4-19.3h165.6
		c0,0,18.4,0,18.4,19.3v72.7h-9.2v-72.3c0-10-9.2-10-9.2-10h-165.6c0,0-9.2,0-9.2,10V75.6c0,10,9.2,10,9.2,10h128.8V95.3z
		 M-1106.6,56.7h-138v-9.6h138V56.7L-1106.6,56.7z M-1171,114.5V95.3h36.8v19.3h18.4v9.6h-73.6v-9.6H-1171L-1171,114.5z M-1152.6,76
		c2.5,0,4.6-2.2,4.6-4.8c0-2.7-2.1-4.8-4.6-4.8c-2.5,0-4.6,2.2-4.6,4.8C-1157.2,73.8-1155.1,76-1152.6,76z M-1088.2,124.2h128.8
		c5.1,0,9.2-4.1,9.2-9.2V32.2c0-5.1-4.1-9.2-9.2-9.2h-128.8c-5.1,0-9.2,4.1-9.2,9.2V115C-1097.4,120.1-1093.3,124.2-1088.2,124.2z
		 M-954.8,73.6c0-2.5-2.1-4.6-4.6-4.6c-2.5,0-4.6,2.1-4.6,4.6s2.1,4.6,4.6,4.6C-956.9,78.2-954.8,76.1-954.8,73.6z M-1083.6,32.2
		V115h115V32.2H-1083.6z"/>
</g>
<path d="M-430.2,110.2H-559c0,0-18.4,0-18.4-19.3V-44c0-19.3,18.4-19.3,18.4-19.3h165.6c0,0,18.4,0,18.4,19.3v81.9h-9.2v-81.5
	c0-10-9.2-10-9.2-10H-559c0,0-9.2,0-9.2,10V90.5c0,10,9.2,10,9.2,10h128.8V110.2z"/>
<polygon points="-414.7,71.6 -568.2,71.6 -568.2,62 -414.7,62 -414.7,71.6 "/>
<polygon points="-494.6,129.4 -494.6,110.2 -457.8,110.2 -457.8,129.4 -439.4,129.4 -439.4,139.1 -513,139.1 -513,129.4 
	-494.6,129.4 "/>
<ellipse cx="-476.2" cy="86.1" rx="4.6" ry="4.8"/>
<path id="a_2_" class="st2" d="M-384.2-43.6c0-10-9.2-10-9.2-10H-559c0,0-9.2,0-9.2,10V90.5c0,10,9.2,10,9.2,10h128.8v9.6H-559
	c0,0-18.4,0-18.4-19.3V-44c0-19.3,18.4-19.3,18.4-19.3h165.6c0,0,18.4,0,18.4,19.3v72.7 M-494.6,129.4v-19.3h36.8v19.3h18.4v9.6
	H-513v-9.6H-494.6L-494.6,129.4z M-476.2,90.9c2.5,0,4.6-2.2,4.6-4.8c0-2.7-2.1-4.8-4.6-4.8c-2.5,0-4.6,2.2-4.6,4.8
	C-480.8,88.7-478.8,90.9-476.2,90.9z"/>
<g id="HE7hEF.tif">
	<g>
		<path d="M-429.1,24.6c1.5-1.1,3-2.3,4.6-3.3c4.6-3,11.7-5,16.8-4.8c0,1.5,0,2.9-0.1,4.5c-7.5,0.1-14.1,2.8-19.5,8.1
			c-5.4,5.4-8,12-8.2,19.6c-1.5,0-3,0.1-4.4,0.1c0,0-0.1-0.1-0.1-0.1c0-0.3,0.1-0.6,0.1-0.9c0.2-5.9,1.8-11.4,5-16.4
			c0.9-1.5,2-2.8,3.1-4.2C-430.9,26.4-430,25.5-429.1,24.6z"/>
		<path d="M-407.8,25.6c0,1.5,0,2.9,0,4.4c-10.6,0.1-18.5,8.8-18.6,18.6c-1.5,0-2.9-0.1-4.4-0.1C-431.2,36.9-420.8,25.4-407.8,25.6z
			"/>
		<path d="M-407.7,39.1c-5.6,0.3-9.4,4.4-9.5,9.6c-1.5,0-2.9,0-4.4,0c-0.3-7.3,6.3-14.1,13.9-13.9
			C-407.8,36.2-407.8,37.6-407.7,39.1z"/>
	</g>
</g>
<g id="WJUWqM.tif">
	<g>
		<g>
			<path d="M60.6,59.8c12.7,15.1,25.3,30,38.2,45.3c-6.4-0.6-12.4-1.1-18.8-1.7c3.4,8.7,6.7,17,10.1,25.5c-2.3,0.9-4.5,1.8-7,2.7
				c-3.1-8.6-6.2-17.1-9.3-25.5c-4.4,4.3-8.7,8.5-13.3,13C60.6,99.2,60.6,79.6,60.6,59.8z"/>
		</g>
	</g>
</g>
</svg>
