<?xml version="1.0" encoding="utf-8"?>
<!-- Generator: Adobe Illustrator 19.1.0, SVG Export Plug-In . SVG Version: 6.00 Build 0)  -->
<svg version="1.1" id="Layer_1" xmlns="http://www.w3.org/2000/svg" xmlns:xlink="http://www.w3.org/1999/xlink" x="0px" y="0px"
	 viewBox="0 0 505.3 270" style="enable-background:new 0 0 505.3 270;" xml:space="preserve">
<style type="text/css">
	.st0{fill:#1D1D1B;stroke:#1D1D1B;stroke-miterlimit:10;}
	.st1{fill:none;stroke:#1D1D1B;stroke-width:4;stroke-miterlimit:10;}
	.st2{fill:none;stroke:#000000;stroke-width:15;stroke-miterlimit:10;}
	.st3{fill:none;}
	.st4{fill:#262626;stroke:#1D1D1B;stroke-miterlimit:10;}
	.st5{fill:none;stroke:#1D1D1B;stroke-width:8;stroke-miterlimit:10;}
	.st6{fill:none;stroke:#1D1D1B;stroke-width:6;stroke-miterlimit:10;}
	.st7{fill:#262626;stroke:#1D1D1B;stroke-width:2;stroke-miterlimit:10;}
	.st8{fill:#262626;}
</style>
<g>
	<g>
		<path class="st5" d="M464.7,251.4c-139.1,0.1-278.3,0-417.4,0c-2.8-0.1-5.6,0.2-8.3-0.3c-6.1-1-11.5-5.1-14.3-10.6
			c-1.4-2.8-2.2-6-2.2-9.2c0-61.6,0-123.3,0-184.9c0.1-3.5-0.3-7,0.6-10.4c1.2-4.9,4.4-9.4,8.7-12.1c3.3-2.1,7.1-3.1,10.9-3
			c138.6,0,277.1,0,415.6,0c3,0,6-0.1,8.9,0.4c4.3,0.9,8.3,3.1,11.1,6.4c3.2,3.6,5,8.5,4.9,13.3c0,63.8,0,127.5,0,191.3
			c-0.1,4.5-1.9,8.9-4.9,12.3C475,248.6,470,251.1,464.7,251.4z M440.1,237c0.1-0.4,0.1-0.8,0.1-1.2c0-51.6,0-103.2,0-154.8
			c0-15.3,0.1-30.5,0-45.8c-120,0.1-240,0-360.1,0c0.1,31.8,0,63.6,0,95.4c0,35.4,0,70.9,0,106.3c72.4-0.1,144.8,0,217.2,0
			C344.9,237,392.5,236.9,440.1,237z M463.4,179.2c2.3-0.6,4.3-2.2,5.1-4.4c0.5-1.3,0.5-2.7,0.5-4c0-13.9,0-27.8,0-41.7
			c0.2-3.3-2.3-6.5-5.5-7.2c-1.7-0.3-3.7-0.3-5.3,0.7c-2.3,1.2-3.7,3.7-3.8,6.2c0,14.4,0,28.8,0,43.3c0,2.8,1.7,5.6,4.3,6.7
			C460.2,179.4,461.9,179.5,463.4,179.2z M54.2,150.4c3.5-0.8,6.7-2.7,8.8-5.6c4-5.2,3.8-13.1-0.5-18c-3.7-4.5-10.2-6.3-15.7-4.3
			c-5.4,1.7-9.4,6.8-9.8,12.4c-0.7,6.2,3.2,12.5,9,14.7C48.6,150.7,51.5,150.8,54.2,150.4z M463.8,107.2c3.3-0.9,5.7-4.4,5.2-7.8
			c-0.2-3.1-2.7-5.8-5.7-6.3c-1.6-0.2-3.3-0.2-4.8,0.6c-2.1,1-3.6,3.1-3.9,5.4c-0.5,2.7,0.7,5.5,2.9,7.1
			C459.3,107.4,461.7,107.7,463.8,107.2z"/>
	</g>
</g>
<g>
	<g>
		<path class="st6" d="M164.5,195.1c31.9,13.2,68.5-1.9,81.8-33.9c6.4-15.5,6.1-32,0.5-46.5"/>
		<polyline class="st6" points="181.9,221.1 164.5,195.1 188.5,179 		"/>
	</g>
	<g>
		<path class="st6" d="M196.1,86.4c-31.9-13.2-68.5,1.9-81.7,33.9c-6.4,15.5-6.1,32-0.6,46.5"/>
		<polyline class="st6" points="178.7,60.4 196.1,86.4 172,102.5 		"/>
	</g>
</g>
<g>
	<g>
		<path class="st7" d="M349.9,132.1c-0.3,0-0.7-0.1-1-0.3l-28.1-18.3c-0.8-0.6-1.1-1.7-0.5-2.5c0.6-0.8,1.7-1.1,2.5-0.5l28.1,18.3
			c0.8,0.6,1.1,1.7,0.5,2.5C351.1,131.8,350.5,132.1,349.9,132.1z"/>
		<path class="st7" d="M382.1,204.3c-0.5,0-0.9-0.1-1.3-0.2c-1.9-0.5-2.8-1.9-3-2.3c-5.4-9.2-10.8-10.9-18.2-13.2
			c-3.4-1.1-7.3-2.3-11.7-4.3c-5.8-2.8-10.6-7.3-13.7-10.5c-1.2-1.3-2.4-2.6-3.5-3.9c-2.7-3-5.2-5.9-8.5-8c-0.7-0.4-1.5-0.8-2.3-1.3
			c-3.9-2-8.6-4.6-9.4-9c-0.4-2.4,0.5-3.8,1.3-4.6c2.1-2.1,6.1-1.8,9-1.3c4.9,0.9,9.2,3.2,13.3,5.4c1.4,0.8,2.9,1.5,4.3,2.2
			c3.1,1.5,5.1,1.5,5.7,0.8c0.6-0.6,0.6-2.8-1.5-6.1c-4.7-7.5-11.3-12.3-18.3-17.4l-2.1-1.6c-0.5-0.4-1.1-0.8-1.7-1.2
			c-6.9-4.9-19.8-14-17.3-21.5c0.8-2.2,2.2-3.1,3.3-3.5c4.2-1.4,10.1,2.8,14.4,5.8c1.2,0.8,2.2,1.5,2.7,1.8c0.9,0.5,1.2,1.6,0.7,2.5
			c-0.5,0.9-1.6,1.2-2.5,0.7c-0.8-0.4-1.8-1.1-3.1-2.1c-2.8-2-8.7-6.1-11.1-5.4c-0.2,0.1-0.6,0.2-0.9,1.1
			c-1.7,4.9,11.1,13.9,15.9,17.3c0.7,0.5,1.3,0.9,1.8,1.3l2.1,1.5c7.3,5.3,14.2,10.3,19.3,18.4c2.7,4.3,3.1,8.3,1.1,10.5
			c-1.1,1.3-4,3-10,0c-1.5-0.7-3-1.5-4.5-2.3c-4.1-2.2-8-4.2-12.3-5.1c-3.1-0.6-5.1-0.3-5.7,0.3c-0.1,0.1-0.4,0.4-0.2,1.3
			c0.5,2.7,4.5,4.8,7.5,6.4c0.9,0.5,1.8,1,2.5,1.4c3.8,2.3,6.7,5.6,9.4,8.7c1.1,1.3,2.2,2.5,3.4,3.8c2.9,3,7.3,7.2,12.6,9.7
			c4.2,2,7.9,3.1,11.2,4.2c7.9,2.4,14.2,4.4,20.3,14.9c0,0.1,0.3,0.5,0.8,0.6c0.6,0.2,1.4-0.1,2.4-0.7l23.6-14.1
			c0.2-0.1,0.5-0.3,0.6-0.6c0-0.3-0.2-0.9-0.7-1.6c-0.1-0.1-0.2-0.2-0.3-0.4l0,0c-8.3-10.1-11.3-20.3-14.9-32.1l-0.2-0.7
			c-2.6-8.7-7.7-20.2-13.5-23.7c-2.5-1.5-3.2-1.5-5.1-1.4c-0.4,0-0.8,0.1-1.3,0.1c-1.6,0-2.7-0.6-3.7-1.1c-1.3-0.7-2.6-1.4-5.4-1.1
			c-1.3,0.1-3.1,0.5-4.5,0.8c-2.4,0.5-2.7,0.6-3.3,0.3c0,0-4.2-1.6-14.3,1.4c-1,0.3-2-0.3-2.3-1.2c-0.3-1,0.3-2,1.2-2.3
			c9.8-2.9,14.7-2,16.3-1.5c0.3-0.1,0.9-0.2,1.6-0.3c1.5-0.3,3.4-0.7,4.9-0.8c3.9-0.4,6,0.7,7.5,1.6c0.9,0.5,1.3,0.7,1.8,0.7
			c0.4,0,0.8,0,1.2-0.1c2.4-0.2,4-0.1,7.3,1.9c8.5,5.3,14,22.4,15,25.8l0.2,0.7c3.4,11.5,6.4,21.4,14.2,30.8c0,0,0.1,0.1,0.1,0.1
			c0,0,0.1,0.1,0.1,0.1l0,0c0,0.1,0.1,0.2,0.1,0.2l0.1,0c0.7,0.8,1.8,2.6,1.5,4.5c-0.2,0.9-0.7,2.1-2.3,3.1l-23.6,14.1
			C384.6,203.9,383.3,204.3,382.1,204.3z"/>
		<path class="st7" d="M361.1,127.5c-0.3,0-0.6-0.1-0.9-0.3l-5-3c-0.9-0.5-1.2-1.6-0.6-2.5c0.5-0.9,1.6-1.2,2.5-0.6l5,3
			c0.9,0.5,1.2,1.6,0.6,2.5C362.3,127.1,361.7,127.5,361.1,127.5z"/>
	</g>
	<g>
		<path class="st7" d="M294.8,128c-0.5,0-0.9-0.2-1.3-0.5c-5.1-5.1-8-11.9-8-19.2c0-10.7,6.3-20.4,16.1-24.8c0.9-0.4,2,0,2.4,0.9
			c0.4,0.9,0,2-0.9,2.4c-8.5,3.8-13.9,12.2-13.9,21.5c0,6.3,2.4,12.2,6.9,16.6c0.7,0.7,0.7,1.9,0,2.6
			C295.8,127.8,295.3,128,294.8,128z"/>
		<g>
			<polygon class="st7" points="302.2,93.1 312.7,82.9 298.6,78.8 			"/>
		</g>
	</g>
	<g>
		<path class="st7" d="M305,180c-0.3,0-0.5-0.1-0.7-0.2c-9.8-4.4-16.1-14.1-16.1-24.8c0-7.3,2.8-14.1,8-19.2c0.7-0.7,1.9-0.7,2.6,0
			c0.7,0.7,0.7,1.9,0,2.6c-4.4,4.4-6.9,10.3-6.9,16.6c0,9.3,5.5,17.7,13.9,21.5c0.9,0.4,1.3,1.5,0.9,2.4
			C306.4,179.6,305.7,180,305,180z"/>
		<g>
			<polygon class="st7" points="301.2,184.4 315.3,180.4 304.8,170.2 			"/>
		</g>
	</g>
</g>
</svg>
