<?xml version="1.0" encoding="utf-8"?>
<!-- Generator: Adobe Illustrator 19.1.0, SVG Export Plug-In . SVG Version: 6.00 Build 0)  -->
<!DOCTYPE svg PUBLIC "-//W3C//DTD SVG 1.1//EN" "http://www.w3.org/Graphics/SVG/1.1/DTD/svg11.dtd">
<svg version="1.1" id="Layer_1" xmlns="http://www.w3.org/2000/svg" xmlns:xlink="http://www.w3.org/1999/xlink" x="0px" y="0px"
	 viewBox="0 0 180.5 228.2" enable-background="new 0 0 180.5 228.2" xml:space="preserve">
<g>
	<rect x="22.8" y="163.9" fill="#DDDE3A" width="132.6" height="39.8"/>
	<g>
		<path d="M31.4,185.2v-1.5c1.2-0.1,1.9-0.3,2.6-0.7c0.9-0.6,1.4-1.7,1.4-3c0-1.3-0.5-2.3-1.5-2.8c-0.6-0.3-1.2-0.4-2.5-0.4h-1.1
			v14.8H28v-16.4h3.4c2.5,0,3.4,0.2,4.4,0.8c1.3,0.8,2,2.1,2,3.7C37.7,182.9,35.2,185.1,31.4,185.2z"/>
		<path d="M49,191.9l-3.8-7.1h-2.4v6.8h-2.3v-16.4h3.8c2.3,0,3.2,0.2,4.1,0.9c1,0.8,1.6,1.9,1.6,3.4c0,2-0.9,3.6-2.7,4.7l4.1,7
			L49,191.9z M46.6,177.3c-0.5-0.4-1.1-0.5-2.3-0.5h-1.5v6.3h1c1.4,0,2.2-0.3,2.8-1c0.6-0.6,0.9-1.5,0.9-2.5
			C47.6,178.6,47.2,177.8,46.6,177.3z"/>
		<path d="M60.8,191.9c-5,0-8.2-3.8-8.2-8.7c0-4.9,3.5-8.3,8.3-8.3c4.6,0,8.1,3.6,8.1,8.3C69,188,65.8,191.9,60.8,191.9z
			 M60.7,176.5c-3.8,0-5.6,3.4-5.6,6.8c0,3.5,1.8,6.8,5.7,6.8c3.4,0,5.7-2.7,5.7-6.8C66.5,179.3,64.2,176.5,60.7,176.5z"/>
		<path d="M77.1,176.8v14.8h-2.3v-14.8h-5.2v-1.6h12.8v1.6H77.1z"/>
		<path d="M91.1,191.9c-5,0-8.2-3.8-8.2-8.7c0-4.9,3.5-8.3,8.3-8.3c4.6,0,8.1,3.6,8.1,8.3C99.3,188,96.2,191.9,91.1,191.9z
			 M91.1,176.5c-3.8,0-5.6,3.4-5.6,6.8c0,3.5,1.8,6.8,5.7,6.8c3.4,0,5.7-2.7,5.7-6.8C96.8,179.3,94.6,176.5,91.1,176.5z"/>
		<path d="M107.5,176.8v14.8h-2.3v-14.8h-5.2v-1.6h12.8v1.6H107.5z"/>
		<path d="M121.1,184.5v7.1h-2.3v-7.1l-4.9-9l2.3-0.5l4,8.1l4.5-8.1l2,0.3L121.1,184.5z"/>
		<path d="M131.9,185.2v-1.5c1.2-0.1,1.9-0.3,2.6-0.7c0.9-0.6,1.4-1.7,1.4-3c0-1.3-0.5-2.3-1.5-2.8c-0.6-0.3-1.2-0.4-2.5-0.4h-1.1
			v14.8h-2.3v-16.4h3.4c2.5,0,3.4,0.2,4.4,0.8c1.3,0.8,2,2.1,2,3.7C138.2,182.9,135.7,185.1,131.9,185.2z"/>
		<path d="M141.1,191.6v-16.4h8.2v1.6h-5.9v5.3h5.8v1.7h-5.8v6.1h6.9v1.6H141.1z"/>
	</g>
	<g>
		<path d="M149.2,120.7c0.6,0,1.1,0.2,1.5,0.6c0.6,0.5,0.8,1.5,0.8,2.8v0.4h-5.2c0-1.3,0.4-2.4,0.9-3
			C147.8,120.9,148.3,120.7,149.2,120.7 M153.3,119.6c-1.1-1.1-2.4-1.7-4.1-1.7c-4.4,0-7.6,3.3-7.6,8.2c0,5.2,3.4,8.9,7.8,8.9
			c3.3,0,5.9-2,5.9-2l-1.3-2.6c0,0-1.7,1.5-3.9,1.5c-1.1,0-2-0.6-2.8-1.1c-0.7-0.9-1.1-2-1.1-3.5h9.1
			C155.4,127.2,155.9,122.2,153.3,119.6 M56.8,120.7c0.6,0,1.1,0.2,1.5,0.6c0.6,0.5,0.7,1.5,0.7,2.8v0.4h-5.2c0-1.3,0.4-2.4,0.9-3
			C55.3,120.9,55.9,120.7,56.8,120.7 M60.9,119.6c-1.1-1.1-2.4-1.7-4.1-1.7c-4.4,0-7.6,3.3-7.6,8.2c0,5.2,3.4,8.9,7.8,8.9
			c3.3,0,5.9-2,5.9-2l-1.3-2.6c0,0-1.7,1.5-3.9,1.5c-1.1,0-2-0.6-2.8-1.1c-0.7-0.9-1.1-2-1.1-3.5h9.1
			C62.9,127.2,63.5,122.2,60.9,119.6 M90.4,115.2c4.1,0,5.4,4.3,5.4,7.8c0,2-0.4,8.4-5.4,8.4c-5.2,0-5.6-6.3-5.6-8.4
			C84.8,119.4,86.3,115.2,90.4,115.2 M90.4,111.7c-5.8,0-10.2,4.8-10.2,11.3c0,7.1,4.3,12.1,10.2,12.1c5.9,0,10.2-5,10.2-12.1
			C100.6,116.5,96.2,111.7,90.4,111.7 M137.5,131.5c-2.6,0-4.3-2.2-4.3-5.4c0-3.5,2.2-5,4.3-5c1.5,0,2.8,0.7,2.8,0.7l-0.9-3.7
			c0,0-1.1-0.4-2.2-0.4c-5.4,0-8.3,4.3-8.3,8.5c0,3,1.8,8.5,8.2,8.5c2.4,0,4.3-1.5,4.3-1.5l-0.9-2.8
			C140.3,130.6,139.2,131.5,137.5,131.5 M72,132.1c-1.1,0-1.7-1.3-1.7-3.5v-7.4h3.7l-0.7-2.8h-3v-3.7h-4.3v3.7h-2.4l0.6,2.8h1.8v8.5
			c0,3.5,1.5,5.4,4.7,5.4c2.4,0,4.1-1.1,4.1-1.1l-0.7-2.6C74.1,131.3,73.2,132.1,72,132.1 M35.3,127.2c0-0.4-4.5-15.8-4.5-15.8h-5.6
			L23,134.7h4.3l1.3-16.1h0.2l4.5,16.1h4.1l4.5-16.1H42l1.3,16.1h4.3l-2-23.2h-5.8C39.8,111.5,35.5,126.9,35.3,127.2 M113.8,118.3
			h-5.6V117c0-1.9,1.3-2.2,1.7-2.2c1.1-0.2,1.8,0.4,1.8,0.4L111,112c0,0-0.7-0.2-1.9-0.2c-2.4,0-5,1.9-5,5.8v0.7h-2.4l0.6,2.8h1.9
			v13.3h4.1v-13.3h5.4v13.3h4.3v-13.3h4.4v13.3h4.3v-16.1h-8.7V117c0-1.9,1.3-2.2,1.7-2.2c1.1-0.2,1.9,0.4,1.9,0.4l-0.7-3.1
			c0,0-0.8-0.2-1.9-0.2c-2.4,0-5,1.9-5,5.8V118.3z"/>
		<path d="M49.4,46.6c-8.9,2-17.5-0.7-26.4-3.7v-5.4c4.5,1,9.2,1.2,13.9,0.2c18.3-4.1,32.9-29.2,60-17.1c25.5,11.2,54.8,1,58.5-0.4
			v12.4c-11.8,2.5-29.7,4-46.2-3.2C82.2,17.4,67.6,42.6,49.4,46.6 M72.6,62.5c18.2-4,32.8-29.2,59.8-17.1c7.6,3.4,15.5,4.7,23,5.2
			v-9.4c-10.6,1-23.4,0.5-35.3-4.9c-27-11.9-41.7,13.3-59.8,17.3c-12.4,2.9-24.2-3.9-37.3-7.4v7.1C41.5,54,56.5,66.3,72.6,62.5
			 M91.8,78.5c18.1-4,32.9-29.2,60-17.3c1.2,0.7,2.4,1,3.7,1.5v-5.9c-5.4-0.8-10.7-2.2-16-4.5c-27.1-12.1-41.8,13.3-60,17.1
			c-17.8,4.2-34.1-11.3-55.6-8.9H23v12.9c4-2,8.4-3.5,13.1-4C57.7,67.1,73.9,82.5,91.8,78.5 M98.6,84.4c-17.8,4-34.1-11.4-55.8-9.1
			c-7.1,0.7-13.6,4-19.8,8.2v19c5.2-5.9,16-15.8,32.1-17.1c21.7-1.8,38,13.3,55.9,9.1c14.3-3.2,26.6-19.5,44.4-20.5v-8.2
			C130.4,57.2,116.1,80.5,98.6,84.4"/>
	</g>
	<line fill="none" stroke="#000000" stroke-width="1.5411" stroke-miterlimit="10" x1="22.8" y1="163.9" x2="155.4" y2="163.9"/>
	<line fill="none" stroke="#000000" stroke-width="1.5411" stroke-miterlimit="10" x1="22.8" y1="203.7" x2="155.4" y2="203.7"/>
</g>
</svg>
