<?xml version="1.0" encoding="utf-8"?>
<!-- Generator: Adobe Illustrator 19.1.0, SVG Export Plug-In . SVG Version: 6.00 Build 0)  -->
<svg version="1.1" id="Layer_1" xmlns="http://www.w3.org/2000/svg" xmlns:xlink="http://www.w3.org/1999/xlink" x="0px" y="0px"
	 viewBox="0 0 600 600" style="enable-background:new 0 0 600 600;" xml:space="preserve">
<style type="text/css">
	.st0{fill:#1D1D1B;stroke:#1D1D1B;stroke-miterlimit:10;}
	.st1{fill:none;stroke:#1D1D1B;stroke-width:4;stroke-miterlimit:10;}
	.st2{fill:none;stroke:#000000;stroke-width:15;stroke-miterlimit:10;}
	.st3{fill:none;}
	.st4{fill:#262626;stroke:#1D1D1B;stroke-miterlimit:10;}
	.st5{fill:none;stroke:#1D1D1B;stroke-width:8;stroke-miterlimit:10;}
	.st6{fill:none;stroke:#1D1D1B;stroke-width:6;stroke-miterlimit:10;}
	.st7{fill:#262626;stroke:#1D1D1B;stroke-width:2;stroke-miterlimit:10;}
	.st8{fill:#262626;}
	.st9{fill:#FFFFFF;}
	.st10{fill:none;stroke:#FFFFFF;stroke-width:10.3914;stroke-miterlimit:10;}
	.st11{fill:#4D4D4D;}
</style>
<path class="st11" d="M469.5,60.9c-15.4,13.9-32.7,21.6-48.7,21.6c-2.2,0-4.5-0.1-6.7-0.5c-9.4-1.2-18.9-4.8-28.2-10.7
	c-3.2-2.1-6.5-4.6-10-7.1c-5.9-4.4-12.1-9-19-12.6c-14.7-8.4-31.3-13-46.7-13c-9.6,0-18.8,1.8-27.2,5.2c-24.5,9.5-42.1,34-43.9,60.7
	c-1.2,12.8,1.5,26.4,7.4,38.1c4.7,9.6,10.8,17.9,16.7,25.9c1,1.4,2,2.8,3.1,4.2l0.1,0.2c15.5,19.6,21.8,38.7,19,56.9l-0.7,4.3l0,0
	c-55.3,5.1-99.1,54.9-99.1,115V448c0,63.5,48.8,115.5,108.4,115.5c59.6,0,108.4-52,108.4-115.5v-98.8c0-60.3-44-110.2-99.5-115.1
	l0.2-1.9c1.7-13.4,0.3-26.6-4-38.1c-4.5-12.5-11.9-23.1-18.5-32.1c-13.8-17.9-26.1-35.7-23.7-55.8l0-0.2
	c1.4-20.1,14.5-38.3,32.6-45.4c6.3-2.6,13.2-3.9,20.5-3.9c12.3,0,25.8,3.8,37.9,10.7l0.2,0.1c5.7,3,10.9,6.8,16.4,10.9
	c3.6,2.7,7.3,5.4,11.4,8.1c11.6,7.4,23.6,11.9,35.6,13.4c3,0.4,6,0.6,9,0.6c20.5,0,42-9.3,60.7-26.2
	C497.6,59.8,484.1,47.8,469.5,60.9z M297.4,267.8c9.8,2.1,17.3,13,17.3,26.2v54.4c0,13.2-7.5,24.1-17.3,26.2h-6.6
	c-9.8-2.1-17.3-13-17.3-26.2V294c0-13.2,7.5-24.1,17.3-26.2H297.4z"/>
</svg>
