<?xml version="1.0" encoding="utf-8"?>
<!-- Generator: Adobe Illustrator 19.1.0, SVG Export Plug-In . SVG Version: 6.00 Build 0)  -->
<svg version="1.1" id="Layer_1" xmlns="http://www.w3.org/2000/svg" xmlns:xlink="http://www.w3.org/1999/xlink" x="0px" y="0px"
	 viewBox="0 0 265.5 262.5" style="enable-background:new 0 0 265.5 262.5;" xml:space="preserve">
<style type="text/css">
	.st0{fill:#1D1D1B;stroke:#1D1D1B;stroke-miterlimit:10;}
	.st1{fill:none;stroke:#000000;stroke-width:15;stroke-miterlimit:10;}
	.st2{fill:none;}
</style>
<g>
	<g>
		<path d="M242.5,145.3c0,27.5,0,54.9,0,82.4c0,0.5,0.1,1.1-0.1,1.6c-0.2,1.2-1.1,2.3-2.2,2.8c-0.6,0.3-1.3,0.4-1.9,0.4
			c-12.9,0-25.9,0-38.8,0c-0.7,0-1.5,0.1-2.2-0.1c-1-0.2-2-0.9-2.5-1.7c-0.4-0.6-0.6-1.4-0.6-2.2c0-27.3,0-54.7,0-82
			c0-0.6,0-1.2,0.1-1.8c0.2-0.8,0.7-1.6,1.4-2.2c0.8-0.6,1.8-1,2.8-1c13.4,0,26.7,0,40.1,0c0.9,0,1.9,0.4,2.6,1
			C242,143.2,242.5,144.2,242.5,145.3z M237,150.1c-0.1,0-0.1,0-0.2,0c-9.6,0-19.2,0-28.8,0c-2.8,0-5.7,0-8.5,0
			c0,23.7,0,47.4,0,71.1c5.9,0,11.8,0,17.7,0c6.6,0,13.2,0,19.8,0c0-14.3,0-28.6,0-42.9C237,168.9,237,159.5,237,150.1z
			 M226.9,145.5c-0.1-0.4-0.4-0.8-0.9-1c-0.3-0.1-0.5-0.1-0.8-0.1c-2.7,0-5.5,0-8.2,0c-0.7,0-1.3,0.4-1.4,1.1
			c-0.1,0.3-0.1,0.7,0.1,1c0.2,0.4,0.7,0.7,1.2,0.7c2.8,0,5.7,0,8.5,0c0.6,0,1.1-0.3,1.3-0.9C226.9,146.1,226.9,145.8,226.9,145.5z
			 M221.2,226.3c-0.2-0.7-0.5-1.3-1.1-1.7c-1-0.8-2.6-0.7-3.6,0.1c-0.9,0.7-1.2,2-0.9,3.1c0.3,1.1,1.3,1.9,2.5,1.9
			c1.2,0.1,2.5-0.6,2.9-1.8C221.2,227.4,221.3,226.8,221.2,226.3z M212.7,145.4c-0.2-0.7-0.9-1.1-1.5-1c-0.6,0-1.1,0.5-1.3,1.1
			c0,0.3,0,0.7,0.1,0.9c0.2,0.4,0.6,0.7,1.1,0.8c0.5,0.1,1.1-0.1,1.4-0.6C212.7,146.3,212.8,145.9,212.7,145.4z"/>
	</g>
</g>
<path d="M174.8,208.6H46c0,0-18.4,0-18.4-19.3V54.4C27.6,35.1,46,35.1,46,35.1h165.6c0,0,18.4,0,18.4,19.3v81.9h-9.2V54.8
	c0-10-9.2-10-9.2-10H46c0,0-9.2,0-9.2,10v134.1c0,10,9.2,10,9.2,10h128.8V208.6z"/>
<polygon points="190.3,170 36.8,170 36.8,160.4 190.3,160.4 190.3,170 "/>
<polygon points="110.4,227.8 110.4,208.6 147.2,208.6 147.2,227.8 165.6,227.8 165.6,237.5 92,237.5 92,227.8 110.4,227.8 "/>
<ellipse cx="128.8" cy="184.5" rx="4.6" ry="4.8"/>
<path id="a_2_" class="st2" d="M220.8,54.8c0-10-9.2-10-9.2-10H46c0,0-9.2,0-9.2,10v134.1c0,10,9.2,10,9.2,10h128.8v9.6H46
	c0,0-18.4,0-18.4-19.3V54.4C27.6,35.1,46,35.1,46,35.1h165.6c0,0,18.4,0,18.4,19.3v72.7 M110.4,227.8v-19.3h36.8v19.3h18.4v9.6H92
	v-9.6H110.4L110.4,227.8z M128.8,189.3c2.5,0,4.6-2.2,4.6-4.8c0-2.7-2.1-4.8-4.6-4.8c-2.5,0-4.6,2.2-4.6,4.8
	C124.2,187.1,126.2,189.3,128.8,189.3z"/>
<g id="HE7hEF.tif">
	<g>
		<path d="M175.9,123c1.5-1.1,3-2.3,4.6-3.3c4.6-3,11.7-5,16.8-4.8c0,1.5,0,2.9-0.1,4.5c-7.5,0.1-14.1,2.8-19.5,8.1
			c-5.4,5.4-8,12-8.2,19.6c-1.5,0-3,0.1-4.4,0.1c0,0-0.1-0.1-0.1-0.1c0-0.3,0.1-0.6,0.1-0.9c0.2-5.9,1.8-11.4,5-16.4
			c0.9-1.5,2-2.8,3.1-4.2C174.1,124.8,175,123.9,175.9,123z"/>
		<path d="M197.2,124.1c0,1.5,0,2.9,0,4.4c-10.6,0.1-18.5,8.8-18.6,18.6c-1.5,0-2.9-0.1-4.4-0.1
			C173.8,135.3,184.2,123.8,197.2,124.1z"/>
		<path d="M197.2,137.5c-5.6,0.3-9.4,4.4-9.5,9.6c-1.5,0-2.9,0-4.4,0c-0.3-7.3,6.3-14.1,13.9-13.9
			C197.2,134.6,197.2,136.1,197.2,137.5z"/>
	</g>
</g>
</svg>
