<?xml version="1.0" encoding="utf-8"?>
<!-- Generator: Adobe Illustrator 19.1.0, SVG Export Plug-In . SVG Version: 6.00 Build 0)  -->
<svg version="1.1" id="Layer_1" xmlns="http://www.w3.org/2000/svg" xmlns:xlink="http://www.w3.org/1999/xlink" x="0px" y="0px"
	 viewBox="0 0 906.1 744.7" style="enable-background:new 0 0 906.1 744.7;" xml:space="preserve">
<style type="text/css">
	.st0{fill:#CCFF33;}
	.st1{fill:#1D1D1B;stroke:#1D1D1B;stroke-miterlimit:10;}
	.st2{fill:none;stroke:#1D1D1B;stroke-width:4;stroke-miterlimit:10;}
	.st3{fill:none;stroke:#000000;stroke-width:15;stroke-miterlimit:10;}
	.st4{fill:none;}
	.st5{fill:#262626;stroke:#1D1D1B;stroke-miterlimit:10;}
	.st6{fill:none;stroke:#1D1D1B;stroke-width:8;stroke-miterlimit:10;}
	.st7{fill:none;stroke:#1D1D1B;stroke-width:6;stroke-miterlimit:10;}
	.st8{fill:#262626;stroke:#1D1D1B;stroke-width:2;stroke-miterlimit:10;}
	.st9{fill:#262626;}
	.st10{fill:#FFFFFF;}
	.st11{fill:none;stroke:#FFFFFF;stroke-width:10.3914;stroke-miterlimit:10;}
	.st12{fill:#4D4D4D;}
</style>
<path class="st12" d="M484.2,490.4H104.3V127.6c0-0.3,0.5-0.9,1.1-0.9h596.7c0.7,0,1.1,0.5,1.1,0.9v219.6h47V99
	c0-11.7-9.5-21.2-21.2-21.2H78.6c-11.7,0-21.2,9.5-21.2,21.2v434.9c0,11.7,9.5,21.2,21.2,21.2h405.7V490.4z"/>
<path class="st12" d="M441.3,598.5c0-6.1-0.2-16.7-0.5-24h-73.8c-0.2,5.9-0.3,15.5-0.3,21.4c0,62.4-172.6,54.7-172.6,54.7
	c-0.9,6.3-6.4,12.4-1.8,16.9c4.6,4.6,11.2,7.2,18.5,7.2h385.9c7.3,0,13.9-2.6,18.5-7.1c4.6-4.5-0.9-10.6-1.8-16.9
	C613.5,650.7,441.3,645.9,441.3,598.5z"/>
<g>
	<path class="st12" d="M851.4,356.3v195.2c0,21.9-17.9,39.9-39.8,39.9H778c-0.6-3-2.6-13.7-4.4-23.2c-1-5.2-1.8-9.8-2.6-14h39V353.7
		H491.8v200.3h83.1c0.1,0.2,0.3,0.4,0.4,0.6c3.2,4.8,5.2,7.8,6.6,9.6c0.7,0.9,2.7,4.6,5.3,10.6c1.9,4.4,5.9,10.4,10.9,16.5h-108
		c-21.9,0-39.9-17.9-39.9-39.9V356.3c0-21.9,17.9-39.9,39.9-39.9h321.4C833.5,316.5,851.4,334.4,851.4,356.3z M795.1,635.5
		c-9.1-8.3-17.3-16.4-19.5-19c-4.6-5.6-12.3-16.4-13.3-21c-1-4.6-11.7-63.5-13.2-69c-4.4-17.3-13.6-41.8-32.9-41.2
		c-4.1,0.1-7.6,3.6-7.6,3.6s-5-13.3-18.2-14.4c-8.6-0.7-13.2,3.7-13.2,3.7s-5.5-12.5-11.9-14.5c-6.5-2-15.4-0.5-17.6,2.2
		c-2.2,2.7-4.9,4.3-5.6,10.1c-0.7,5.8-0.9,14.8-0.9,14.8s-17.8-41.7-20.7-50.4c-3.2-9.7-10.9-37.8-13.8-42.8
		c-2.9-4.9-5.5-11.3-12.6-10.4c-7.2,0.9-15,6.1-12.5,20.5c2.6,14.3,9.2,38,12.1,48.9c2.9,10.9,19.1,50.8,22.9,63.6
		c3.8,12.8,3.6,17.6,3.6,17.6s-6.2-10.1-9.4-13.9c-3.6-4.3-7.1-7.6-7.1-7.6s-6.3-11.5-15.1-16.1c-9-4.8-21.4-9.3-28.3-3
		c-6.8,6.3,0.3,10.9,3.1,13c2.7,2,8,6.3,9.6,8.9c1.5,2.6,7.9,15.7,9.9,18.3c2,2.6,9.4,14,11.8,17.1c2.4,3.1,5.6,10.1,7.3,14
		c1.7,3.9,7.7,12.6,16.2,21.3c8.5,8.7,50.7,45.2,58.7,53.6c4.5,4.6,16.2,16.9,27.2,27.9C714.7,681.6,802.2,641.9,795.1,635.5z"/>
</g>
</svg>
