<?xml version="1.0" encoding="utf-8"?>
<!-- Generator: Adobe Illustrator 19.1.0, SVG Export Plug-In . SVG Version: 6.00 Build 0)  -->
<svg version="1.1" id="Layer_1" xmlns="http://www.w3.org/2000/svg" xmlns:xlink="http://www.w3.org/1999/xlink" x="0px" y="0px"
	 viewBox="0 0 754 504.3" style="enable-background:new 0 0 754 504.3;" xml:space="preserve">
<style type="text/css">
	.st0{fill:#CCFF33;}
	.st1{fill:#1D1D1B;stroke:#1D1D1B;stroke-miterlimit:10;}
	.st2{fill:none;stroke:#1D1D1B;stroke-width:4;stroke-miterlimit:10;}
	.st3{fill:none;stroke:#000000;stroke-width:15;stroke-miterlimit:10;}
	.st4{fill:none;}
	.st5{fill:#262626;stroke:#1D1D1B;stroke-miterlimit:10;}
	.st6{fill:none;stroke:#1D1D1B;stroke-width:8;stroke-miterlimit:10;}
	.st7{fill:none;stroke:#1D1D1B;stroke-width:6;stroke-miterlimit:10;}
	.st8{fill:#262626;stroke:#1D1D1B;stroke-width:2;stroke-miterlimit:10;}
	.st9{fill:#262626;}
	.st10{fill:#FFFFFF;}
	.st11{fill:none;stroke:#FFFFFF;stroke-width:10.3914;stroke-miterlimit:10;}
	.st12{fill:#4D4D4D;}
	.st13{fill:none;stroke:#FFFFFF;stroke-width:9;}
	.st14{fill:#1D1D1B;stroke:#FFFFFF;stroke-width:9;}
	.st15{fill:url(#SVGID_1_);}
	.st16{fill:url(#SVGID_2_);}
	.st17{fill:url(#SVGID_3_);}
	.st18{fill:url(#SVGID_4_);}
	.st19{fill:url(#SVGID_5_);}
	.st20{fill:url(#SVGID_6_);}
	.st21{fill:url(#SVGID_7_);}
	.st22{fill:url(#SVGID_8_);}
	.st23{fill:url(#SVGID_9_);}
	.st24{fill:url(#SVGID_10_);}
	.st25{fill:url(#SVGID_11_);}
	.st26{fill:url(#SVGID_12_);}
	.st27{fill:url(#SVGID_13_);}
	.st28{fill:url(#SVGID_14_);}
	.st29{fill:url(#SVGID_15_);}
	.st30{fill:url(#SVGID_16_);}
	.st31{fill:url(#SVGID_17_);}
	.st32{fill:url(#SVGID_18_);}
	.st33{fill:#6F6F6E;}
	.st34{fill:#575756;}
	.st35{fill:#1D1D1B;}
	.st36{fill:url(#SVGID_19_);}
	.st37{fill:url(#SVGID_20_);}
	.st38{fill:url(#SVGID_21_);}
	.st39{fill:url(#SVGID_22_);}
	.st40{fill:#3C3C3B;}
	.st41{fill:url(#SVGID_23_);}
	.st42{fill:#D9D9D9;}
	.st43{fill:url(#SVGID_24_);}
	.st44{fill:url(#SVGID_25_);}
	.st45{fill:url(#SVGID_26_);}
	.st46{fill:url(#SVGID_27_);}
	.st47{fill:url(#SVGID_28_);}
	.st48{fill:url(#SVGID_29_);}
	.st49{fill:url(#SVGID_30_);}
	.st50{fill:url(#SVGID_31_);}
	.st51{fill:url(#SVGID_32_);}
	.st52{fill:url(#SVGID_33_);}
	.st53{fill:url(#SVGID_34_);}
	.st54{fill:url(#SVGID_35_);}
	.st55{fill:url(#SVGID_36_);}
	.st56{fill:url(#SVGID_37_);}
	.st57{fill:url(#SVGID_38_);}
	.st58{fill:url(#SVGID_39_);}
	.st59{fill:url(#SVGID_40_);}
	.st60{fill:url(#SVGID_41_);}
	.st61{fill:url(#SVGID_42_);}
	.st62{fill:url(#SVGID_43_);}
	.st63{fill:url(#SVGID_44_);}
	.st64{fill:url(#SVGID_45_);}
	.st65{fill:url(#SVGID_46_);}
	.st66{fill:url(#SVGID_47_);}
	.st67{fill:url(#SVGID_48_);}
	.st68{fill:url(#SVGID_49_);}
	.st69{fill:url(#SVGID_50_);}
	.st70{fill:url(#SVGID_51_);}
	.st71{fill:url(#SVGID_52_);}
	.st72{fill:url(#SVGID_53_);}
	.st73{fill:url(#SVGID_54_);}
	.st74{fill:url(#SVGID_55_);}
	.st75{fill:url(#SVGID_56_);}
	.st76{opacity:0.68;}
	.st77{fill:url(#SVGID_57_);}
	.st78{fill:url(#SVGID_58_);}
	.st79{fill:url(#SVGID_59_);}
	.st80{fill:url(#SVGID_60_);}
	.st81{fill:url(#SVGID_61_);}
	.st82{fill:url(#SVGID_62_);}
	.st83{fill:url(#SVGID_63_);}
	.st84{fill:url(#SVGID_64_);}
	.st85{fill:url(#SVGID_65_);}
	.st86{fill:url(#SVGID_66_);stroke:#575756;stroke-width:3;stroke-miterlimit:10;}
	.st87{fill:url(#SVGID_67_);stroke:#575756;stroke-width:3;stroke-miterlimit:10;}
	.st88{fill:url(#SVGID_68_);}
	.st89{fill:url(#SVGID_69_);}
	.st90{fill:url(#SVGID_70_);}
	.st91{fill:url(#SVGID_71_);}
	.st92{fill:url(#SVGID_72_);}
	.st93{fill:url(#SVGID_73_);}
	.st94{fill:url(#SVGID_74_);}
	.st95{fill:url(#SVGID_75_);}
	.st96{fill:url(#SVGID_76_);}
	.st97{fill:url(#SVGID_77_);}
	.st98{fill:url(#SVGID_78_);}
	.st99{fill:url(#SVGID_79_);}
	.st100{fill:url(#SVGID_80_);}
	.st101{fill:url(#SVGID_81_);}
	.st102{fill:url(#SVGID_82_);}
	.st103{fill:url(#SVGID_83_);}
	.st104{fill:url(#SVGID_84_);stroke:#575756;stroke-width:3;stroke-miterlimit:10;}
	.st105{fill:url(#SVGID_85_);stroke:#575756;stroke-width:3;stroke-miterlimit:10;}
	.st106{fill:url(#SVGID_86_);}
	.st107{fill:url(#SVGID_87_);}
	.st108{fill:url(#SVGID_88_);}
	.st109{fill:url(#SVGID_89_);}
	.st110{fill:url(#SVGID_90_);}
	.st111{fill:url(#SVGID_91_);}
	.st112{fill:url(#SVGID_92_);}
	.st113{fill:url(#SVGID_93_);}
	.st114{fill:url(#SVGID_94_);}
	.st115{fill:url(#SVGID_95_);}
	.st116{fill:url(#SVGID_96_);}
	.st117{fill:url(#SVGID_97_);}
	.st118{fill:url(#SVGID_98_);}
	.st119{fill:url(#SVGID_99_);stroke:#575756;stroke-width:3;stroke-miterlimit:10;}
	.st120{fill:url(#SVGID_100_);stroke:#575756;stroke-width:3;stroke-miterlimit:10;}
	.st121{fill:url(#SVGID_101_);}
	.st122{fill:url(#SVGID_102_);}
	.st123{fill:url(#SVGID_103_);}
	.st124{fill:url(#SVGID_104_);}
	.st125{fill:url(#SVGID_105_);}
	.st126{fill:url(#SVGID_106_);}
	.st127{fill:url(#SVGID_107_);}
	.st128{fill:url(#SVGID_108_);}
	.st129{fill:url(#SVGID_109_);stroke:#575756;stroke-width:3;stroke-miterlimit:10;}
	.st130{fill:url(#SVGID_110_);}
	.st131{fill:url(#SVGID_111_);}
	.st132{fill:url(#SVGID_112_);}
	.st133{fill:url(#SVGID_113_);}
	.st134{fill:url(#SVGID_114_);}
	.st135{fill:url(#SVGID_115_);}
	.st136{fill:url(#SVGID_116_);}
	.st137{fill:url(#SVGID_117_);}
	.st138{fill:url(#SVGID_118_);}
	.st139{fill:url(#SVGID_119_);}
	.st140{fill:url(#SVGID_120_);}
	.st141{fill:url(#SVGID_121_);}
	.st142{fill:url(#SVGID_122_);}
	.st143{fill:url(#SVGID_123_);}
	.st144{fill:url(#SVGID_124_);}
	.st145{fill:url(#SVGID_125_);}
	.st146{fill:url(#SVGID_126_);}
	.st147{fill:url(#SVGID_127_);}
	.st148{fill:url(#SVGID_128_);}
	.st149{fill:url(#SVGID_129_);}
	.st150{fill:url(#SVGID_130_);}
	.st151{fill:url(#SVGID_131_);}
	.st152{fill:url(#SVGID_132_);}
	.st153{fill:url(#SVGID_133_);}
	.st154{fill:url(#SVGID_134_);}
	.st155{fill:url(#SVGID_135_);}
	.st156{fill:url(#SVGID_136_);}
	.st157{fill:url(#SVGID_137_);}
	.st158{fill:url(#SVGID_138_);}
	.st159{fill:url(#SVGID_139_);}
	.st160{fill:url(#SVGID_140_);}
	.st161{fill:url(#SVGID_141_);}
	.st162{fill:url(#SVGID_142_);}
	.st163{fill:url(#SVGID_143_);}
	.st164{fill:url(#SVGID_144_);}
	.st165{fill:url(#SVGID_145_);}
	.st166{fill:url(#SVGID_146_);}
	.st167{fill:#706F6F;}
</style>
<g id="XMLID_3_">
	<g>
		<path class="st12" d="M32.7,48.2c4.1-3.6,9.5-5.6,14.8-5.4h173.3c5,0.1,9.9,2,13.8,5.4c4.4,3.8,7.2,9.4,7.5,15.3l0,0.2
			c0,77.3,0,155.8,0,231.8c0,48.8,0,97.5,0,146.3l0,0.1c0,0.7,0,1.5,0,2.3c0,0.5,0,1,0,1.5c0,1.4-0.1,2.8-0.4,4.3
			c-1.1,6.7-5.6,12.7-11.8,15.9c-3.2,1.6-6.7,2.4-10.2,2.4H52.3l0,0c-0.8,0-1.5,0-2.4,0c-2.4,0-5.2,0-8-0.6
			c-5.6-1.4-10.4-4.9-13.4-9.7c-2.2-3.6-3.4-7.8-3.4-12.1c0-83.6,0-167.3,0-251V69.4v0c0-0.6,0-1.2,0-1.8c0-2.2,0-4.5,0.4-6.9l0-0.2
			C26.5,55.7,29.1,51.3,32.7,48.2z M127,63.9c-0.9-0.1-2,0.8-2.3,1.7c-0.2,0.8-0.1,1.5,0.1,1.7l0.1,0.2c0.4,0.7,1.2,1.2,2.1,1.3
			c6.5,0,13,0,19.6,0c6.5,0,13.1,0,19.6,0c1,0,2-0.6,2.3-1.3l0.1-0.2c0.2-0.4,0.2-0.9,0.1-1.6c-0.2-0.7-0.8-1.4-1.4-1.6l-0.1-0.1
			c-0.3-0.1-1.1-0.1-1.7-0.1H165h-37.9L127,63.9z M103.4,65.6c-0.3-1-1.5-1.8-2.5-1.7l-0.3,0c-0.9,0.1-1.7,0.8-2,1.7
			c0,0.3,0,0.6,0,0.8c0,0.6,0.1,0.8,0.1,0.9l0.1,0.2c0.3,0.7,1,1.2,1.7,1.3l0.2,0c0.8,0.1,1.8-0.3,2.3-0.9l0.1-0.1
			C103.5,67.3,103.6,66.4,103.4,65.6z M68.4,90.1c-7.2,0-14.6,0-22,0c0,52.8,0,106.4,0,158.3c0,52.3,0,106.4,0,159.6
			c17.4,0,35,0,52.1,0c10.1,0,20.2,0,30.2,0c11.5,0,22.9,0,34.4,0c18.9,0,38.5,0,57.8,0c0-44.9,0-90.4,0-134.5c0-19.4,0-38.8,0-58.1
			c0-15.5,0-31.1,0-46.6c0-10.6,0-21.4,0-32.3c0-15.5,0-31,0-46.5c-22.4,0-44.7,0-67.1,0c-23.4,0-46.7,0-70.1,0
			C78.6,90.1,73.5,90.1,68.4,90.1z M149.1,424.3c-6.2-4.7-15.6-4.5-21.5,0.6c-5.4,4.5-7.5,12.1-5.1,18.7c2,6.4,8.1,11.2,14.8,11.6
			c7.5,0.8,14.8-3.7,17.5-10.7c0.8-1.9,1.2-4,1.2-6.4c0-1-0.1-2.1-0.2-3.1l-0.1-0.3C154.7,430.4,152.4,426.7,149.1,424.3z"/>
		<path class="st10" d="M127.6,425c5.9-5.1,15.3-5.4,21.5-0.6c3.3,2.4,5.6,6.1,6.6,10.4l0.1,0.3c0.2,1.1,0.2,2.1,0.2,3.1
			c0,2.3-0.4,4.5-1.2,6.4c-2.7,7-10,11.5-17.5,10.7c-6.7-0.5-12.8-5.2-14.8-11.6C120.1,437.1,122.2,429.4,127.6,425z M146,430.9
			c-3.2-2.4-8.1-2.3-11.1,0.3l-0.1,0.1c-2,1.6-3.1,4.3-3.1,6.9c0,0.9,0.2,1.9,0.5,2.7l0.1,0.2c1,3.2,4.2,5.7,7.6,6l0.2,0
			c3.7,0.4,7.7-2,9-5.5l0.1-0.2c0.6-1.3,0.7-3,0.5-5C149,434.1,147.8,432.1,146,430.9L146,430.9z"/>
		<path class="st10" d="M134.9,431.2c3-2.6,7.9-2.7,11.1-0.3l0.1,0.1c1.6,1.2,2.9,3.1,3.4,5.4c0.3,2,0.1,3.7-0.5,5l-0.1,0.2
			c-1.3,3.5-5.3,5.9-9,5.5l-0.2,0c-3.4-0.2-6.6-2.7-7.6-6l-0.1-0.2c-0.3-0.9-0.5-1.8-0.5-2.7c0-2.6,1.1-5.2,3.1-6.9L134.9,431.2z"/>
	</g>
</g>
<g id="Arrow_26">
</g>
<path class="st12" d="M528.9,463.6h-0.4c-3.4,0-6.1-2.7-6.1-6.1c0-3.4,2.7-6.1,6.1-6.1h0.4c3.4,0,6.1,2.7,6.1,6.1
	C535,460.9,532.2,463.6,528.9,463.6z M595,463.6h-0.4c-3.4,0-6.1-2.7-6.1-6.1c0-3.4,2.7-6.1,6.1-6.1h0.4c3.4,0,6.1,2.7,6.1,6.1
	C601.1,460.9,598.4,463.6,595,463.6z M561.9,463.6h-0.4c-3.4,0-6.1-2.7-6.1-6.1c0-3.4,2.7-6.1,6.1-6.1h0.4c3.4,0,6.1,2.7,6.1,6.1
	C568,460.9,565.3,463.6,561.9,463.6z M495.8,463.6h-0.4c-3.4,0-6.1-2.7-6.1-6.1c0-3.4,2.7-6.1,6.1-6.1h0.4c3.4,0,6.1,2.7,6.1,6.1
	C501.9,460.9,499.2,463.6,495.8,463.6z M462.7,463.6h-0.4c-3.4,0-6.1-2.7-6.1-6.1c0-3.4,2.7-6.1,6.1-6.1h0.4c3.4,0,6.1,2.7,6.1,6.1
	C468.8,460.9,466.1,463.6,462.7,463.6z M429.7,463.6h-0.4c-3.4,0-6.1-2.7-6.1-6.1c0-3.4,2.7-6.1,6.1-6.1h0.4c3.4,0,6.1,2.7,6.1,6.1
	C435.8,460.9,433,463.6,429.7,463.6z M628,463.6h-0.4c-3.4,0-6.1-2.7-6.1-6.1c0-3.4,2.7-6.1,6.1-6.1h0.4c3.4,0,6.1,2.7,6.1,6.1
	C634.1,460.9,631.4,463.6,628,463.6z M396.6,463.6h-0.4c-3.4,0-6.1-2.7-6.1-6.1c0-3.4,2.7-6.1,6.1-6.1h0.4c3.4,0,6.1,2.7,6.1,6.1
	C402.7,460.9,400,463.6,396.6,463.6z M363.5,463.6h-0.4c-3.4,0-6.1-2.7-6.1-6.1c0-3.4,2.7-6.1,6.1-6.1h0.4c3.4,0,6.1,2.7,6.1,6.1
	C369.6,460.9,366.9,463.6,363.5,463.6z M330.5,463.6h-0.4c-3.4,0-6.1-2.7-6.1-6.1c0-3.4,2.7-6.1,6.1-6.1h0.4c3.4,0,6.1,2.7,6.1,6.1
	C336.6,460.9,333.8,463.6,330.5,463.6z M661.1,463.6h-0.4c-3.4,0-6.1-2.7-6.1-6.1c0-3.4,2.7-6.1,6.1-6.1h0.4c3.4,0,6.1,2.7,6.1,6.1
	C667.2,460.9,664.5,463.6,661.1,463.6z M694.2,463.6h-0.4c-3.4,0-6.1-2.7-6.1-6.1c0-3.4,2.7-6.1,6.1-6.1h0.4
	c3.3-0.3,6.1,2.3,6.4,5.7c0.2,3.4-2.4,6.3-5.8,6.5C694.6,463.6,694.3,463.6,694.2,463.6z M304.1,449.5c-2.8,0-5.3-1.9-5.9-4.8
	l-0.1-0.5c-0.6-3.3,1.6-6.5,4.9-7.1c3.3-0.6,6.5,1.6,7.1,4.9c0.7,3.3-1.4,6.7-4.7,7.3C305,449.4,304.6,449.5,304.1,449.5z
	 M710.6,439.8c-3.4,0-6.1-2.7-6.1-6.1v-0.4c0-3.4,2.7-6.1,6.1-6.1c3.4,0,6.1,2.7,6.1,6.1v0.4C716.7,437,714,439.8,710.6,439.8z
	 M303.9,416.6c-3.4,0-6.1-2.7-6.1-6.1V410c0-3.4,2.7-6.1,6.1-6.1c3.4,0,6.1,2.7,6.1,6.1v0.4C310,413.8,307.2,416.6,303.9,416.6z
	 M710.6,406.7c-3.4,0-6.1-2.7-6.1-6.1v-0.4c0-3.4,2.7-6.1,6.1-6.1c3.4,0,6.1,2.7,6.1,6.1v0.4C716.7,404,714,406.7,710.6,406.7z
	 M303.9,383.5c-3.4,0-6.1-2.7-6.1-6.1V377c0-3.4,2.7-6.1,6.1-6.1c3.4,0,6.1,2.7,6.1,6.1v0.4C310,380.7,307.2,383.5,303.9,383.5z
	 M710.6,373.6c-3.4,0-6.1-2.7-6.1-6.1v-0.4c0-3.4,2.7-6.1,6.1-6.1c3.4,0,6.1,2.7,6.1,6.1v0.4C716.7,370.9,714,373.6,710.6,373.6z
	 M303.9,350.4c-3.4,0-6.1-2.7-6.1-6.1v-0.4c0-3.4,2.7-6.1,6.1-6.1c3.4,0,6.1,2.7,6.1,6.1v0.4C310,347.7,307.2,350.4,303.9,350.4z
	 M710.6,340.6c-3.4,0-6.1-2.7-6.1-6.1V334c0-3.4,2.7-6.1,6.1-6.1c3.4,0,6.1,2.7,6.1,6.1v0.4C716.7,337.8,714,340.6,710.6,340.6z
	 M303.9,317.4c-3.4,0-6.1-2.7-6.1-6.1v-0.4c0-3.4,2.7-6.1,6.1-6.1c3.4,0,6.1,2.7,6.1,6.1v0.4C310,314.6,307.2,317.4,303.9,317.4z
	 M710.6,307.5c-3.4,0-6.1-2.7-6.1-6.1V301c0-3.4,2.7-6.1,6.1-6.1c3.4,0,6.1,2.7,6.1,6.1v0.4C716.7,304.8,714,307.5,710.6,307.5z
	 M303.9,284.3c-3.4,0-6.1-2.7-6.1-6.1v-0.4c0-3.4,2.7-6.1,6.1-6.1c3.4,0,6.1,2.7,6.1,6.1v0.4C310,281.6,307.2,284.3,303.9,284.3z
	 M710.3,274.4c-2.8,0-5.3-1.9-5.9-4.8l-0.1-0.4c-0.7-3.3,1.4-6.5,4.7-7.2c3.3-0.7,6.5,1.4,7.2,4.7c0,0,0,0.3,0.1,0.3
	c0.6,3.3-1.5,6.6-4.8,7.2C711.1,274.3,710.7,274.4,710.3,274.4z M320.5,260.2c-3.2,0-6-2.4-6.2-5.6c-0.2-3.4,2.2-6.3,5.5-6.5l0.6,0
	c3.5-0.1,6.2,2.5,6.4,5.8c0.1,3.4-2.5,6.2-5.8,6.4C320.8,260.1,320.6,260.2,320.5,260.2z M519.1,260.1h-0.4c-3.4,0-6.1-2.7-6.1-6.1
	c0-3.4,2.7-6.1,6.1-6.1h0.4c3.4,0,6.1,2.7,6.1,6.1C525.2,257.4,522.4,260.1,519.1,260.1z M486,260.1h-0.4c-3.4,0-6.1-2.7-6.1-6.1
	c0-3.4,2.7-6.1,6.1-6.1h0.4c3.4,0,6.1,2.7,6.1,6.1C492.1,257.4,489.4,260.1,486,260.1z M452.9,260.1h-0.4c-3.4,0-6.1-2.7-6.1-6.1
	c0-3.4,2.7-6.1,6.1-6.1h0.4c3.4,0,6.1,2.7,6.1,6.1C459,257.4,456.3,260.1,452.9,260.1z M419.9,260.1h-0.4c-3.4,0-6.1-2.7-6.1-6.1
	c0-3.4,2.7-6.1,6.1-6.1h0.4c3.4,0,6.1,2.7,6.1,6.1C426,257.4,423.2,260.1,419.9,260.1z M386.8,260.1h-0.4c-3.4,0-6.1-2.7-6.1-6.1
	c0-3.4,2.7-6.1,6.1-6.1h0.4c3.4,0,6.1,2.7,6.1,6.1C392.9,257.4,390.2,260.1,386.8,260.1z M353.8,260.1h-0.4c-3.4,0-6.1-2.7-6.1-6.1
	c0-3.4,2.7-6.1,6.1-6.1h0.4c3.4,0,6.1,2.7,6.1,6.1C359.9,257.4,357.1,260.1,353.8,260.1z M684.4,260.1H684c-3.4,0-6.1-2.7-6.1-6.1
	c0-3.4,2.7-6.1,6.1-6.1h0.4c3.4,0,6.1,2.7,6.1,6.1C690.5,257.4,687.7,260.1,684.4,260.1z M651.3,260.1h-0.4c-3.4,0-6.1-2.7-6.1-6.1
	c0-3.4,2.7-6.1,6.1-6.1h0.4c3.4,0,6.1,2.7,6.1,6.1C657.4,257.4,654.7,260.1,651.3,260.1z M618.3,260.1h-0.4c-3.4,0-6.1-2.7-6.1-6.1
	c0-3.4,2.7-6.1,6.1-6.1h0.4c3.4,0,6.1,2.7,6.1,6.1C624.4,257.4,621.6,260.1,618.3,260.1z M585.2,260.1h-0.4c-3.4,0-6.1-2.7-6.1-6.1
	c0-3.4,2.7-6.1,6.1-6.1h0.4c3.4,0,6.1,2.7,6.1,6.1C591.3,257.4,588.6,260.1,585.2,260.1z M552.1,260.1h-0.4c-3.4,0-6.1-2.7-6.1-6.1
	c0-3.4,2.7-6.1,6.1-6.1h0.4c3.4,0,6.1,2.7,6.1,6.1C558.2,257.4,555.5,260.1,552.1,260.1z"/>
<g>
	<path class="st12" d="M273.5,56.4c10.5,0,21,1.4,31.2,4.2c20.2,5.4,38.8,16.4,53.5,31.4c11.5,11.7,20.6,25.9,26.4,41.4
		c3.4,9.1,5.7,18.7,6.8,28.4c0.5,4.1,0.8,12.3,0.8,12.3l16,0l-30.2,30.3c0,0-0.2-0.1-0.2-0.1c-9.8-9.7-30.2-30.3-30.2-30.3l15.7,0
		c0,0,0-1.8,0-2.6c-0.4-9.5-2.2-18.8-5.5-27.7c-6-16.1-16.8-30.4-30.6-40.7c-12.7-9.5-28.1-15.5-43.9-17.2c-3.1-0.3-6.3-0.5-9.5-0.5
		c0-0.4-0.1-0.8-0.1-1.2C273.5,74.8,273.5,65.6,273.5,56.4z"/>
</g>
</svg>
